# xmcd
# 
# Track frame offsets:
#     183
#     21353
#     50735
#     67793
#     100235
#     129235
#     157398
#     179980
# 
# Disc length: 2700
# 
# Revision: 2
# Processed by: cddbd v1.5.2PL0 Copyright (c) Steve Scherf et al.
# Submitted via: BonkEnc v1.0.0
# 
DISCID=730a8a08
DTITLE=신촌Blues - RAINY DAY BLUES
DYEAR=1992
DGENRE=Blues
TTITLE0=내 맘속에 내리는 비는
TTITLE1=잊어야 한다면
TTITLE2=기적소리
TTITLE3=당신이 떠난 뒤에도
TTITLE4=비오는 날의 해후
TTITLE5=밤마다 BLUES
TTITLE6=밤마다
TTITLE7=서로 다른 이유때문에
EXTD=YEAR: 1992
EXTT0=
EXTT1=
EXTT2=
EXTT3=
EXTT4=
EXTT5=
EXTT6=
EXTT7=
PLAYORDER=
